<?xml version="1.0" encoding="utf-8"?>
<svg viewBox="-0.553 -0.616 1013.183 573.195" xmlns="http://www.w3.org/2000/svg">
  <rect width="100%" height="100%" fill="none" transform="matrix(1, 0, 0, 1, 1.1368683772161603e-13, 5.684341886080802e-14)"/>
  <line x1="0" y1="0" x2="0" y2="572.522" stroke="#323232" stroke-width="1" style="" transform="matrix(1, 0, 0, 1, 1.1368683772161603e-13, 5.684341886080802e-14)"/>
  <line x1="22" y1="0" x2="22" y2="572.389" stroke="#323232" stroke-width="1" style="" transform="matrix(1, 0, 0, 1, 1.1368683772161603e-13, 5.684341886080802e-14)"/>
  <line x1="44" y1="0" x2="44" y2="572.382" stroke="#323232" stroke-width="1" style="" transform="matrix(1, 0, 0, 1, 1.1368683772161603e-13, 5.684341886080802e-14)"/>
  <line x1="66" y1="0" x2="66" y2="572.403" stroke="#323232" stroke-width="1" style="" transform="matrix(1, 0, 0, 1, 1.1368683772161603e-13, 5.684341886080802e-14)"/>
  <line x1="88" y1="0" x2="88" y2="572.401" stroke="#323232" stroke-width="1" style="" transform="matrix(1, 0, 0, 1, 1.1368683772161603e-13, 5.684341886080802e-14)"/>
  <line x1="110" y1="0" x2="110" y2="572.242" stroke="#323232" stroke-width="1" style="" transform="matrix(1, 0, 0, 1, 1.1368683772161603e-13, 5.684341886080802e-14)"/>
  <line x1="132" y1="0" x2="132" y2="572.192" stroke="#323232" stroke-width="1" style="" transform="matrix(1, 0, 0, 1, 1.1368683772161603e-13, 5.684341886080802e-14)"/>
  <line x1="154" y1="0" x2="154" y2="572.319" stroke="#323232" stroke-width="1" style="" transform="matrix(1, 0, 0, 1, 1.1368683772161603e-13, 5.684341886080802e-14)"/>
  <line x1="176" y1="0" x2="176" y2="572.276" stroke="#323232" stroke-width="1" style="" transform="matrix(1, 0, 0, 1, 1.1368683772161603e-13, 5.684341886080802e-14)"/>
  <line x1="198" y1="0" x2="198" y2="572.14" stroke="#323232" stroke-width="1" style="" transform="matrix(1, 0, 0, 1, 1.1368683772161603e-13, 5.684341886080802e-14)"/>
  <line x1="220" y1="0" x2="220" y2="572.307" stroke="#323232" stroke-width="1" style="" transform="matrix(1, 0, 0, 1, 1.1368683772161603e-13, 5.684341886080802e-14)"/>
  <line x1="242" y1="0" x2="242" y2="572.459" stroke="#323232" stroke-width="1" style="" transform="matrix(1, 0, 0, 1, 1.1368683772161603e-13, 5.684341886080802e-14)"/>
  <line x1="264" y1="0" x2="264" y2="572.18" stroke="#323232" stroke-width="1" style="" transform="matrix(1, 0, 0, 1, 1.1368683772161603e-13, 5.684341886080802e-14)"/>
  <line x1="286" y1="0" x2="286" y2="572.231" stroke="#323232" stroke-width="1" style="" transform="matrix(1, 0, 0, 1, 1.1368683772161603e-13, 5.684341886080802e-14)"/>
  <line x1="308" y1="0" x2="308" y2="572.409" stroke="#323232" stroke-width="1" style="" transform="matrix(1, 0, 0, 1, 1.1368683772161603e-13, 5.684341886080802e-14)"/>
  <line x1="330" y1="0" x2="330" y2="572.39" stroke="#323232" stroke-width="1" style="" transform="matrix(1, 0, 0, 1, 1.1368683772161603e-13, 5.684341886080802e-14)"/>
  <line x1="352" y1="0" x2="352" y2="572.332" stroke="#323232" stroke-width="1" style="" transform="matrix(1, 0, 0, 1, 1.1368683772161603e-13, 5.684341886080802e-14)"/>
  <line x1="374" y1="0" x2="374" y2="572.259" stroke="#323232" stroke-width="1" style="" transform="matrix(1, 0, 0, 1, 1.1368683772161603e-13, 5.684341886080802e-14)"/>
  <line x1="396" y1="0" x2="396" y2="572.272" stroke="#323232" stroke-width="1" style="" transform="matrix(1, 0, 0, 1, 1.1368683772161603e-13, 5.684341886080802e-14)"/>
  <line x1="418" y1="0" x2="418" y2="572.497" stroke="#323232" stroke-width="1" style="" transform="matrix(1, 0, 0, 1, 1.1368683772161603e-13, 5.684341886080802e-14)"/>
  <line x1="440" y1="0" x2="440" y2="572.268" stroke="#323232" stroke-width="1" style="" transform="matrix(1, 0, 0, 1, 1.1368683772161603e-13, 5.684341886080802e-14)"/>
  <line x1="462" y1="0" x2="462" y2="572.296" stroke="#323232" stroke-width="1" style="" transform="matrix(1, 0, 0, 1, 1.1368683772161603e-13, 5.684341886080802e-14)"/>
  <line x1="484" y1="0" x2="484" y2="572.041" stroke="#323232" stroke-width="1" style="" transform="matrix(1, 0, 0, 1, 1.1368683772161603e-13, 5.684341886080802e-14)"/>
  <line x1="506" y1="0" x2="506" y2="572.253" stroke="#323232" stroke-width="1" style="" transform="matrix(1, 0, 0, 1, 1.1368683772161603e-13, 5.684341886080802e-14)"/>
  <line x1="528" y1="0" x2="528" y2="572.321" stroke="#323232" stroke-width="1" style="" transform="matrix(1, 0, 0, 1, 1.1368683772161603e-13, 5.684341886080802e-14)"/>
  <line x1="550" y1="0" x2="550" y2="572.411" stroke="#323232" stroke-width="1" style="" transform="matrix(1, 0, 0, 1, 1.1368683772161603e-13, 5.684341886080802e-14)"/>
  <line x1="572" y1="0" x2="572" y2="572.101" stroke="#323232" stroke-width="1" style="" transform="matrix(1, 0, 0, 1, 1.1368683772161603e-13, 5.684341886080802e-14)"/>
  <line x1="594" y1="0" x2="594" y2="572.298" stroke="#323232" stroke-width="1" style="" transform="matrix(1, 0, 0, 1, 1.1368683772161603e-13, 5.684341886080802e-14)"/>
  <line x1="616" y1="0" x2="616" y2="572.264" stroke="#323232" stroke-width="1" style="" transform="matrix(1, 0, 0, 1, 1.1368683772161603e-13, 5.684341886080802e-14)"/>
  <line x1="638" y1="0" x2="638" y2="572.206" stroke="#323232" stroke-width="1" style="" transform="matrix(1, 0, 0, 1, 1.1368683772161603e-13, 5.684341886080802e-14)"/>
  <line x1="660" y1="0" x2="660" y2="572.25" stroke="#323232" stroke-width="1" style="" transform="matrix(1, 0, 0, 1, 1.1368683772161603e-13, 5.684341886080802e-14)"/>
  <line x1="682" y1="0" x2="682" y2="572.207" stroke="#323232" stroke-width="1" style="" transform="matrix(1, 0, 0, 1, 1.1368683772161603e-13, 5.684341886080802e-14)"/>
  <line x1="704" y1="0" x2="704" y2="572.292" stroke="#323232" stroke-width="1" style="" transform="matrix(1, 0, 0, 1, 1.1368683772161603e-13, 5.684341886080802e-14)"/>
  <line x1="726" y1="0" x2="726" y2="572.391" stroke="#323232" stroke-width="1" style="" transform="matrix(1, 0, 0, 1, 1.1368683772161603e-13, 5.684341886080802e-14)"/>
  <line x1="748" y1="0" x2="748" y2="572.294" stroke="#323232" stroke-width="1" style="" transform="matrix(1, 0, 0, 1, 1.1368683772161603e-13, 5.684341886080802e-14)"/>
  <line x1="770" y1="0" x2="770" y2="572.159" stroke="#323232" stroke-width="1" style="" transform="matrix(1, 0, 0, 1, 1.1368683772161603e-13, 5.684341886080802e-14)"/>
  <line x1="792" y1="0" x2="792" y2="572.292" stroke="#323232" stroke-width="1" style="" transform="matrix(1, 0, 0, 1, 1.1368683772161603e-13, 5.684341886080802e-14)"/>
  <line x1="814" y1="0" x2="814" y2="572.303" stroke="#323232" stroke-width="1" style="" transform="matrix(1, 0, 0, 1, 1.1368683772161603e-13, 5.684341886080802e-14)"/>
  <line x1="836" y1="0" x2="836" y2="572.199" stroke="#323232" stroke-width="1" style="" transform="matrix(1, 0, 0, 1, 1.1368683772161603e-13, 5.684341886080802e-14)"/>
  <line x1="858" y1="0" x2="858" y2="572.206" stroke="#323232" stroke-width="1" style="" transform="matrix(1, 0, 0, 1, 1.1368683772161603e-13, 5.684341886080802e-14)"/>
  <line x1="880" y1="0" x2="880" y2="572.439" stroke="#323232" stroke-width="1" style="" transform="matrix(1, 0, 0, 1, 1.1368683772161603e-13, 5.684341886080802e-14)"/>
  <line x1="902" y1="0" x2="902" y2="572.333" stroke="#323232" stroke-width="1" style="" transform="matrix(1, 0, 0, 1, 1.1368683772161603e-13, 5.684341886080802e-14)"/>
  <line x1="924" y1="0" x2="924" y2="572.277" stroke="#323232" stroke-width="1" style="" transform="matrix(1, 0, 0, 1, 1.1368683772161603e-13, 5.684341886080802e-14)"/>
  <line x1="946" y1="0" x2="946" y2="572.148" stroke="#323232" stroke-width="1" style="" transform="matrix(1, 0, 0, 1, 1.1368683772161603e-13, 5.684341886080802e-14)"/>
  <line x1="968" y1="0" x2="968" y2="572.28" stroke="#323232" stroke-width="1" style="" transform="matrix(1, 0, 0, 1, 1.1368683772161603e-13, 5.684341886080802e-14)"/>
  <line x1="990" y1="0" x2="990" y2="572.12" stroke="#323232" stroke-width="1" style="" transform="matrix(1, 0, 0, 1, 1.1368683772161603e-13, 5.684341886080802e-14)"/>
  <line x1="1012" y1="0" x2="1012" y2="572.507" stroke="#323232" stroke-width="1" style="" transform="matrix(1, 0, 0, 1, 1.1368683772161603e-13, 5.684341886080802e-14)"/>
  <line x1="0" y1="0" x2="1012.008" y2="0" stroke="#323232" stroke-width="1" style="" transform="matrix(1, 0, 0, 1, 1.1368683772161603e-13, 5.684341886080802e-14)"/>
  <line x1="0" y1="22" x2="1012.086" y2="22" stroke="#323232" stroke-width="1" style="" transform="matrix(1, 0, 0, 1, 1.1368683772161603e-13, 5.684341886080802e-14)"/>
  <line x1="0" y1="44" x2="1012.023" y2="44" stroke="#323232" stroke-width="1" style="" transform="matrix(1, 0, 0, 1, 1.1368683772161603e-13, 5.684341886080802e-14)"/>
  <line x1="0" y1="66" x2="1012.112" y2="66" stroke="#323232" stroke-width="1" style="" transform="matrix(1, 0, 0, 1, 1.1368683772161603e-13, 5.684341886080802e-14)"/>
  <line x1="0" y1="88" x2="1011.951" y2="88" stroke="#323232" stroke-width="1" style="" transform="matrix(1, 0, 0, 1, 1.1368683772161603e-13, 5.684341886080802e-14)"/>
  <line x1="0" y1="110" x2="1011.902" y2="110" stroke="#323232" stroke-width="1" style="" transform="matrix(1, 0, 0, 1, 1.1368683772161603e-13, 5.684341886080802e-14)"/>
  <line x1="0" y1="132" x2="1012.002" y2="132" stroke="#323232" stroke-width="1" style="" transform="matrix(1, 0, 0, 1, 1.1368683772161603e-13, 5.684341886080802e-14)"/>
  <line x1="0" y1="154" x2="1012.004" y2="154" stroke="#323232" stroke-width="1" style="" transform="matrix(1, 0, 0, 1, 1.1368683772161603e-13, 5.684341886080802e-14)"/>
  <line x1="0" y1="176" x2="1011.934" y2="176" stroke="#323232" stroke-width="1" style="" transform="matrix(1, 0, 0, 1, 1.1368683772161603e-13, 5.684341886080802e-14)"/>
  <line x1="0" y1="198" x2="1011.877" y2="198" stroke="#323232" stroke-width="1" style="" transform="matrix(1, 0, 0, 1, 1.1368683772161603e-13, 5.684341886080802e-14)"/>
  <line x1="0" y1="220" x2="1011.997" y2="220" stroke="#323232" stroke-width="1" style="" transform="matrix(1, 0, 0, 1, 1.1368683772161603e-13, 5.684341886080802e-14)"/>
  <line x1="0" y1="242" x2="1011.867" y2="242" stroke="#323232" stroke-width="1" style="" transform="matrix(1, 0, 0, 1, 1.1368683772161603e-13, 5.684341886080802e-14)"/>
  <line x1="0" y1="264" x2="1012.088" y2="264" stroke="#323232" stroke-width="1" style="" transform="matrix(1, 0, 0, 1, 1.1368683772161603e-13, 5.684341886080802e-14)"/>
  <line x1="0" y1="286" x2="1011.994" y2="286" stroke="#323232" stroke-width="1" style="" transform="matrix(1, 0, 0, 1, 1.1368683772161603e-13, 5.684341886080802e-14)"/>
  <line x1="0" y1="308" x2="1011.77" y2="308" stroke="#323232" stroke-width="1" style="" transform="matrix(1, 0, 0, 1, 1.1368683772161603e-13, 5.684341886080802e-14)"/>
  <line x1="0" y1="330" x2="1011.752" y2="330" stroke="#323232" stroke-width="1" style="" transform="matrix(1, 0, 0, 1, 1.1368683772161603e-13, 5.684341886080802e-14)"/>
  <line x1="0" y1="352" x2="1011.778" y2="352" stroke="#323232" stroke-width="1" style="" transform="matrix(1, 0, 0, 1, 1.1368683772161603e-13, 5.684341886080802e-14)"/>
  <line x1="0" y1="374" x2="1012.101" y2="374" stroke="#323232" stroke-width="1" style="" transform="matrix(1, 0, 0, 1, 1.1368683772161603e-13, 5.684341886080802e-14)"/>
  <line x1="0" y1="396" x2="1011.965" y2="396" stroke="#323232" stroke-width="1" style="" transform="matrix(1, 0, 0, 1, 1.1368683772161603e-13, 5.684341886080802e-14)"/>
  <line x1="0" y1="418" x2="1011.968" y2="418" stroke="#323232" stroke-width="1" style="" transform="matrix(1, 0, 0, 1, 1.1368683772161603e-13, 5.684341886080802e-14)"/>
  <line x1="0" y1="440" x2="1012.062" y2="440" stroke="#323232" stroke-width="1" style="" transform="matrix(1, 0, 0, 1, 1.1368683772161603e-13, 5.684341886080802e-14)"/>
  <line x1="0" y1="462" x2="1011.934" y2="462" stroke="#323232" stroke-width="1" style="" transform="matrix(1, 0, 0, 1, 1.1368683772161603e-13, 5.684341886080802e-14)"/>
  <line x1="0" y1="484" x2="1012.045" y2="484" stroke="#323232" stroke-width="1" style="" transform="matrix(1, 0, 0, 1, 1.1368683772161603e-13, 5.684341886080802e-14)"/>
  <line x1="0" y1="506" x2="1012.094" y2="506" stroke="#323232" stroke-width="1" style="" transform="matrix(1, 0, 0, 1, 1.1368683772161603e-13, 5.684341886080802e-14)"/>
  <line x1="0" y1="528" x2="1011.688" y2="528" stroke="#323232" stroke-width="1" style="" transform="matrix(1, 0, 0, 1, 1.1368683772161603e-13, 5.684341886080802e-14)"/>
  <line x1="0" y1="550" x2="1011.954" y2="550" stroke="#323232" stroke-width="1" style="" transform="matrix(1, 0, 0, 1, 1.1368683772161603e-13, 5.684341886080802e-14)"/>
  <line x1="0" y1="572" x2="1011.972" y2="572" stroke="#323232" stroke-width="1" style="" transform="matrix(1, 0, 0, 1, 1.1368683772161603e-13, 5.684341886080802e-14)"/>
</svg>